<?xml version="1.0" encoding="UTF-8"?>
<svg width="81px" height="80px" viewBox="0 0 81 80" version="1.1" xmlns="http://www.w3.org/2000/svg" xmlns:xlink="http://www.w3.org/1999/xlink">
    <!-- Generator: Sketch 49 (51002) - http://www.bohemiancoding.com/sketch -->
    <title>ryanair_logo</title>
    <desc>Created with Sketch.</desc>
    <defs></defs>
    <g id="Cases" stroke="none" stroke-width="1" fill="none" fill-rule="evenodd">
        <g id="ryanair_case" transform="translate(-165.000000, -176.000000)" fill="#F4CA35" fill-rule="nonzero">
            <g id="ryanair_logo" transform="translate(165.000000, 176.000000)">
                <path d="M53.6305714,4.4918138 C58.7198811,6.18938213 64.1044029,7.49086784 69.5950457,8.11386367 L73.42473,8.15135966 L73.54299,8.04512103 C75.8326037,8.10761434 77.5250357,7.10340931 79.7517651,6.61321177 C79.9914137,6.55696779 80.5665703,6.41260824 80.8107866,6.73882333 C80.9221637,7.16377785 80.7482151,7.62497849 80.2664151,7.94131964 C77.5392394,10.0251591 74.2874023,11.5753682 71.2217151,12.6910613 L71.2217151,12.628568 C70.215942,12.8216723 69.1400263,13.254251 68.0955214,13.5968394 C64.319148,14.7389671 60.0200529,15.4561404 55.9585414,15.1639842 C48.17841,14.7652768 41.5658614,11.9886365 34.69677,12.3170388 C27.95157,11.923331 21.5367471,14.497493 17.9463986,19.5781368 C16.104108,22.2367272 14.638998,25.0401772 14.1820389,28.1234722 C14.385396,30.914861 18.3090626,31.9869963 19.7790531,34.2955617 C20.6228289,35.6911623 21.0411189,37.2293727 21.6769697,38.6782177 C23.3065174,41.5975927 24.9215486,44.5145306 26.9234589,47.262299 L26.8734017,47.318543 C28.0460529,49.1560963 29.9149363,50.747426 32.1247089,51.8268105 C34.989792,53.8720916 37.5186789,56.4365047 39.0225831,59.1916473 L38.9443689,59.2353926 C40.6367383,61.9302292 41.5868854,64.7240552 42.8973814,67.5345044 C43.4849271,69.2586324 44.1327917,70.7750951 44.6356783,72.4532905 C44.8077497,72.6101487 44.8077497,72.8632467 44.9084897,73.0836606 C45.372144,74.4118309 45.766782,75.8268045 46.3324903,77.0583602 C46.0884617,77.2439653 46.5233331,77.3145828 46.4701474,77.4951884 C46.5014331,78.2412336 47.2296394,79.3593639 46.2574046,79.8591854 C44.8429774,78.6107566 44.1008177,76.7804524 43.336758,75.4499698 C41.6661634,72.5401562 39.7536677,69.7270198 37.6938163,66.9596285 L37.7563877,66.9033845 C36.4918817,65.3169293 35.094474,63.5299955 33.648636,61.8879837 C27.5535531,55.148705 18.5958274,51.1016381 12.0483531,44.6854498 L11.9857817,44.7416937 C11.4276446,44.2417472 11.0694231,43.580193 10.6173446,43.0103165 L10.6611446,42.9478232 C9.86329629,41.8322551 9.38938029,40.5597038 8.61818743,39.4175135 L8.66198743,39.3612696 C6.63592457,36.3477171 4.6872,33.148247 3.37682914,29.9778988 C3.10401771,28.5749239 2.62284343,27.3676156 2.51609657,25.7521635 L2.36342229,25.2234701 C2.44789371,23.75294 -1.20515143,22.9005312 0.804017143,20.080083 C2.06608286,18.720666 6.94984543,17.0447829 8.61105429,14.4924935 C8.64859714,14.1112843 8.73682286,13.6569579 8.40769714,13.3116824 C8.40769714,13.0392116 8.12424857,12.7517423 7.92652286,12.4689601 C7.00284343,11.3219578 4.49810914,12.2277359 4.53928114,10.5347921 C4.795824,10.5222934 4.55179543,10.2979424 4.72073829,10.2010778 C4.58057829,9.36560471 4.52238686,8.81260139 4.75828114,8.10755185 C5.26385829,6.71907544 5.75685857,5.12049652 5.65768286,3.7200214 C5.75967429,3.19382772 6.28652571,2.87967384 6.81819514,2.6744458 C7.85781943,2.41384869 8.76691971,2.27386367 9.78720943,2.13825318 L9.91548086,2.24199208 C12.2727969,2.04888775 15.1039037,2.21699476 16.6681894,4.06754671 C17.3447743,5.47052156 16.815858,7.13421851 16.4360494,8.54681734 C16.3177894,9.36054275 15.4253957,10.0245967 15.6333831,10.8818799 C15.9431117,11.1980961 16.5932289,11.1787232 17.0067009,11.003117 C20.5655134,8.84922247 23.6724351,5.8597924 26.2641437,2.84149042 C28.6528706,0.607916961 32.1706363,-0.164750348 35.4058294,0.298887533 C41.9601866,0.803833494 47.4996351,2.99847362 53.6091094,4.48831418 L53.6305714,4.4918138 Z M36.7362857,16.3030498 C37.6599026,17.529731 36.4240543,18.6115527 36.0565723,19.6909372 C32.2099937,25.4596948 30.8681494,31.9939955 28.3152351,38.1733342 C28.1243923,38.3858114 27.7452094,38.4508045 27.4714594,38.3664385 C26.791746,37.8814904 26.791746,37.081826 26.8695223,36.3814635 C27.3819823,29.6828054 29.154318,23.397853 32.0095774,17.4091189 C32.6767766,16.4504715 33.8156391,15.3639003 35.283252,15.5908135 C35.8370091,15.7064261 36.3325123,15.9001554 36.7362231,16.3032372 L36.7362857,16.3030498 Z M46.8728571,18.0528625 C47.3640429,20.2550643 45.7824874,22.0613085 45.0813746,24.0317226 C41.3387271,31.4934241 36.8463489,38.7951426 34.6269403,46.771164 C34.5230717,47.0248869 34.3747774,47.3679752 34.0781889,47.4789008 C33.7615774,47.5657665 33.4956489,47.4082834 33.4133674,47.1845573 C32.6640746,44.0140841 33.5266217,40.7152497 34.3417397,37.7018222 C36.474174,31.0056638 39.0538689,24.1551469 42.6612369,17.9276884 C43.0798397,17.6089725 43.144914,17.3390014 43.66701,17.1910172 C44.9217549,17.0604062 46.1790026,17.1535212 46.8728571,18.0531125 L46.8728571,18.0528625 Z M57.6977143,18.4278224 C58.7058651,19.1863662 58.1857714,20.6204002 57.7896943,21.5090551 C53.4038751,31.209267 46.3003286,39.5733719 43.3607229,49.7466581 C42.548358,51.9029898 42.0213189,54.1317513 41.3467363,56.3047063 C41.2278506,56.6959144 40.655322,56.7077881 40.246668,56.6115484 C39.856848,55.6891471 39.9713537,54.51796 39.9713537,53.5206917 C40.8973483,45.3465665 42.8533311,37.4049164 46.8523337,30.288803 C48.6704091,26.7343709 50.4281031,23.5370256 52.3357183,20.0673969 C52.8744583,19.0870018 53.7766757,18.1983469 55.0871091,17.8772563 C56.0517729,17.8210123 56.9801451,18.0459882 57.6982149,18.4278224 L57.6977143,18.4278224 Z M69.7114286,18.9277689 C70.4145437,20.103768 69.7364571,21.398067 69.4167171,22.5233216 C66.6266571,30.3181124 61.4094514,36.7699219 57.2190429,43.8716619 C53.6311346,49.7056625 51.2835171,56.1840942 48.89454,62.5184163 C48.0676586,64.4211501 47.7702566,66.534049 46.7669237,68.3426055 C46.6849551,68.5375846 46.4284123,68.4207221 46.2525866,68.4707167 C45.636258,67.9513973 45.7157237,67.2102891 45.570558,66.5534219 C46.0442237,58.6236456 49.1053431,51.4587874 51.9797494,44.3020533 C55.5773563,36.3216574 60.4006123,28.700598 63.6793551,20.449606 C64.1361266,19.4089049 65.0380937,18.1339163 66.4306834,17.7427082 C67.8257134,17.5327307 68.8823571,18.0351769 69.7115537,18.9283938 L69.7114286,18.9277689 Z" id="Combined-Shape"></path>
            </g>
        </g>
    </g>
</svg>